<svg xmlns="http://www.w3.org/2000/svg" viewBox="0 0 512 512">
  <defs>
    <linearGradient id="gradient" x1="77" y1="435" x2="435" y2="77" gradientUnits="userSpaceOnUse">
      <stop offset="0" stop-color="#41d9cc"/>
      <stop offset="1" stop-color="#7be393"/>
    </linearGradient>
  </defs>
  <path
     d="m 289.78253,472.58716 68.20433,-111.07577 55.77339,46.44536 c -32.498,33.73002 -75.62736,57.11252 -123.97772,64.63041 M 58.579274,351.16387 l 70.157746,20.36357 16.37329,73.43879 C 107.80569,422.99258 77.521623,390.32809 58.579274,351.16387 m 0.840567,-191.99701 59.301389,76.82483 -78.918573,55.90492 C 37.872906,280.21129 36.819249,268.23 36.819249,256.00006 c 0,-34.74822 8.145185,-67.61394 22.600592,-96.8332 M 151.07716,63.600452 141.00219,118.90159 90.603702,112.40182 C 107.66362,92.784224 128.10954,76.185636 151.07716,63.600452 m 118.34234,-26.354154 -62.19009,90.203182 -37.82555,-4.87774 13.3307,-73.130985 c 22.93209,-8.157279 47.58081,-12.644334 73.25956,-12.644334 4.51064,0 8.98575,0.189354 13.42538,0.449877 m 184.48671,124.608072 -58.96993,8.67814 -15.50906,-95.566414 c 31.87052,21.807911 57.71501,51.773024 74.47899,86.888274 m 17.84133,132.62317 c -6.02604,33.87208 -19.81844,65.08036 -39.51851,91.68313 L 380.00734,342.687 Z m -239.85758,39.12873 99.29348,16.8946 -68.22799,111.1113 z m -28.56741,3.55177 33.30301,137.13395 c -20.50511,-1.81137 -40.19331,-6.42871 -58.68578,-13.52042 l -20.95499,-93.96805 z m -65.94308,-79.35847 51.23906,54.80386 -50.0078,32.01332 -87.797818,-25.47802 z m 122.13082,3.36234 -47.02439,35.10338 -55.35904,-59.13706 54.40006,-68.26507 z m 9.88555,-173.539651 31.82313,-46.102033 c 16.1602,3.397871 31.66926,8.618985 46.31406,15.391029 l 15.92341,98.159165 z m -16.24309,23.560101 105.72204,75.78304 -76.1483,56.86386 -52.03226,-100.08899 z m 109.15532,108.9092 -19.34487,103.45137 -97.11511,-16.52761 z m 112.88459,35.90842 c 0,1.47995 -0.0828,2.94799 -0.10659,4.41611 l -101.18766,53.17002 21.35747,-114.18954 69.48294,-10.21724 c 6.7719,21.07386 10.4538,43.52107 10.4538,66.82065 M 187.05573,153.67343 138.42126,214.71654 80.729951,139.95171 Z M 255.99409,0 C 114.84986,0 0,114.84072 0,255.99998 0,397.15932 114.84986,512 255.99409,512 397.15014,512 512,397.15932 512,255.99998 512,114.84072 397.15014,0 255.99409,0"
     style="fill:url(#gradient);" />
</svg>
